Simulation
nRows=24
nColumns=15
endheader
time  TH_x TH_y TH_z SC_y  SC_z  SC_x  AC_y  AC_z  AC_x  GH_y  GH_z  GH_yy  EL_x  PS_y
1.15  0.000000  0.000000  0.000000  -31.82861988709966  4.95114421134145  13.146477521577399  68.75172448905181  0.9963588267344653  0.7925844897429559  66.06843204279646  42.96638607988775  -75.25160888213502  29.23594361429889  0.000000
1.173  0.000000  0.000000  0.000000  -31.816036711003697  4.952117732651487  13.158117978463599  68.79690965422853  0.9588173367766789  0.828029850043368  66.15410191622765  42.90785972789975  -75.22955531033827  29.27869784229171  0.000000
1.196  0.000000  0.000000  0.000000  -31.806329028818922  4.961590371602877  13.17513781859288  68.8259661503958  0.9325665164762332  0.8541908741723908  66.20103103352774  42.86394951459053  -75.19588010272838  29.30163627587083  0.000000
1.219  0.000000  0.000000  0.000000  -31.800756064575335  4.979805304401372  13.198100209683082  68.83960676043698  0.9176931153864211  0.8709955840024923  66.20862105323857  42.83494410818357  -75.14939196363143  29.304101619784696  0.000000
1.242  0.000000  0.000000  0.000000  -31.798133321594264  5.006518730816785  13.226389638284644  68.83685741521703  0.9142727065123034  0.8782754974825944  66.17658744580125  42.82064671271109  -75.08869572087166  29.285556671742896  0.000000
1.265  0.000000  0.000000  0.000000  -31.799756109329053  5.041809817737485  13.26052905146618  68.81874426405123  0.9223501296330332  0.8761474561986766  66.1046107005728  42.82120213715431  -75.01216798245248  29.24561570273846  0.000000
1.288  0.000000  0.000000  0.000000  -31.804499961707528  5.08526916742127  13.299893034999696  68.78463035697156  0.9419782588995199  0.8646065932808882  65.99273233665049  42.836270169342285  -74.91800083604154  29.184007627653774  0.000000
1.311  0.000000  0.000000  0.000000  -31.81377578446012  5.136808672485061  13.344911361665103  68.73589188691518  0.973203593297901  0.8439769492908307  65.84084973325075  42.86587840498097  -74.80421700136104  29.10064409159579  0.000000
1.334  0.000000  0.000000  0.000000  -31.826582765703904  5.195841661889921  13.394669019499947  68.67219908937243  1.016227549122073  0.8146408351444799  65.64937810370225  42.90949807824354  -74.66871702759249  28.995603560395505  0.000000
1.357  0.000000  0.000000  0.000000  -31.844322000085896  5.26214608100296  13.449646264570513  68.59525656669128  1.070902121608353  0.7770156450484091  65.41907928847371  42.96725296174962  -74.50932161901072  28.86900684936567  0.000000
1.38  0.000000  0.000000  0.000000  -31.866001356258835  5.334994330891266  13.509280401028379  68.50485478792974  1.1369248412311137  0.7313434639928778  65.15151213001687  43.03883943049096  -74.3239865582773  28.721266902251852  0.000000
1.403  0.000000  0.000000  0.000000  -31.893333154660294  5.413913857150942  13.573813996462757  68.40275187855157  1.2142401275843935  0.6780593879359534  64.84808141026342  43.12461749588668  -74.11062680037861  28.552994229804817  0.000000
1.426  0.000000  0.000000  0.000000  -31.925435835304132  5.497751707681927  13.642425672414483  68.28853944424262  1.3029724457304688  0.617077704828747  64.51057304957138  43.224586089437324  -73.86670696319415  28.36487799414602  0.000000
1.449  0.000000  0.000000  0.000000  -31.96397654122144  5.585750029511004  13.715209001984563  68.163712210489  1.4032324529586417  0.5481920833232958  64.14026590168001  43.339840054570324  -73.58963606705403  28.1574712911894  0.000000
1.472  0.000000  0.000000  0.000000  -32.00817109138489  5.675574990248707  13.790789884609847  68.02748231058395  1.515334214522931  0.4707463382343779  63.73820912844629  43.47078618755547  -73.27608102201269  27.931982965324345  0.000000
1.4949999999999999  0.000000  0.000000  0.000000  -32.059006846589206  5.765619595679843  13.870530434215077  67.88100257802293  1.638149810542081  0.3845799518579059  63.3055570861742  43.61711454297831  -72.92265039400307  27.69021893589416  0.000000
1.518  0.000000  0.000000  0.000000  -32.115321910410636  5.856923424455766  13.953702459518867  67.7260304257385  1.769417114243356  0.29243055675560875  62.84399845530057  43.7786055191303  -72.52781569549843  27.432331917690917  0.000000
1.541  0.000000  0.000000  0.000000  -32.17799068353643  5.950575326526456  14.040356083680217  67.56639220003193  1.9079911549675708  0.19723934972867685  62.35593116672356  43.9543720526481  -72.09131682509799  27.15994251100976  0.000000
1.564  0.000000  0.000000  0.000000  -32.244884741609965  6.045258531793652  14.130664054858569  67.40321851933345  2.05198960915473  0.10010466343466903  61.84346784433643  44.14270332878403  -71.61218150186578  26.875380795633237  0.000000
1.587  0.000000  0.000000  0.000000  -32.31675411720389  6.1404746789668465  14.225188670772553  67.23991084841734  2.200096093968339  0.002239409414307166  61.30834921488755  44.34318158532687  -71.08980272088877  26.58030994831123  0.000000
1.6099999999999999  0.000000  0.000000  0.000000  -32.392089978389514  6.235255895821107  14.323525074098468  67.07745794834264  2.3510456740912655  -0.09526934846790888  60.75311419129329  44.55453610747022  -70.52357318942181  26.276820965262836  0.000000
1.633  0.000000  0.000000  0.000000  -32.47202753670032  6.329037119037926  14.426382797368252  66.91887316757047  2.5035446137126973  -0.19143127652763817  60.1797913672931  44.776326625565154  -69.91319286675902  25.966945262970683  0.000000
1.656  0.000000  0.000000  0.000000  -32.555347214848766  6.42079065870906  14.533269200736843  66.76514091711582  2.6564742314717043  -0.285426037975617  59.59102424886236  45.00758551470006  -69.25877424324183  25.652876871455643  0.000000
1.679  0.000000  0.000000  0.000000  -32.64336027326893  6.5099958533902855  14.644992870126762  66.61913831160201  2.808701381983779  -0.37636977748865463  58.98907322521479  45.247821947970074  -68.56068162131204  25.33695715787813  0.000000
